<svg width="80" height="80" viewBox="0 0 80 80" fill="none" xmlns="http://www.w3.org/2000/svg">
<circle cx="40" cy="40" r="40" fill="#EBAC87"/>
<path d="M53.4434 29.6309C53.4434 31.5449 53.1016 33.2539 52.418 34.7578C51.7344 36.2422 50.8359 37.5605 49.7227 38.7129C48.6289 39.8262 47.3691 40.8711 45.9434 41.8477C44.5176 42.8242 43.0039 43.7715 41.4023 44.6895V51.2812H36.1582V42.3457C37.4277 41.623 38.7949 40.832 40.2598 39.9727C41.7441 39.1133 42.9551 38.2441 43.8926 37.3652C45.0254 36.3496 45.9043 35.3047 46.5293 34.2305C47.1543 33.1367 47.4668 31.75 47.4668 30.0703C47.4668 27.8633 46.7148 26.2227 45.2109 25.1484C43.7266 24.0547 41.8027 23.5078 39.4395 23.5078C37.3301 23.5078 35.3281 23.8398 33.4336 24.5039C31.5586 25.168 30.0742 25.8418 28.9805 26.5254H28.6875V20.5488C30.0547 20.0215 31.7832 19.5527 33.873 19.1426C35.9824 18.7129 37.9746 18.498 39.8496 18.498C44.0488 18.498 47.3594 19.5234 49.7812 21.5742C52.2227 23.6055 53.4434 26.291 53.4434 29.6309ZM41.8711 63H35.8945V56.8184H41.8711V63Z" fill="white"/>
</svg>
